<svg xmlns="http://www.w3.org/2000/svg" viewBox="0 0 200 200">
  <g transform="translate(52, 30) scale(0.55)">
    <!-- Knight body -->
    <path fill="#ffffff" d="M140 40 C130 25, 105 15, 85 20 C65 25, 50 45, 45 65 L40 80 C38 88, 42 92, 48 90 L55 86 C50 100, 48 115, 50 130 C42 135, 35 140, 35 150 L35 160 C35 170, 38 175, 45 178 L50 180 C55 190, 60 200, 65 210 L60 220 C58 228, 55 235, 55 245 L55 260 C55 268, 60 275, 70 278 L105 285 C130 290, 150 288, 165 280 L175 275 C182 272, 185 265, 185 258 L185 245 C185 230, 178 218, 168 210 L158 202 C155 195, 152 185, 152 175 L152 160 C152 145, 158 130, 168 120 C178 110, 182 95, 178 80 C175 68, 165 55, 150 45 Z"/>
    <!-- Eye -->
    <circle cx="105" cy="75" r="9" fill="rgba(0,0,0,0.45)"/>
    <!-- Base -->
    <rect x="50" y="278" width="130" height="12" rx="6" fill="#ffffff"/>
    <rect x="42" y="290" width="146" height="14" rx="7" fill="#ffffff"/>
  </g>
</svg>
